<svg width="31" height="21" viewBox="0 0 31 21" fill="none" xmlns="http://www.w3.org/2000/svg">
<path d="M1.968 4.032L2.076 5.472L2.016 5.28C2.144 4.976 2.328 4.72 2.568 4.512C2.816 4.296 3.072 4.132 3.336 4.02C3.608 3.9 3.844 3.84 4.044 3.84L3.984 4.944C3.608 4.92 3.276 4.992 2.988 5.16C2.708 5.328 2.484 5.552 2.316 5.832C2.156 6.112 2.076 6.412 2.076 6.732V9H0.972V4.032H1.968ZM5.90372 11.388L9.17972 4.032H10.2117L7.00772 11.388H5.90372ZM7.12772 9.036L4.73972 4.032H5.99972L8.00372 8.472L7.12772 9.036ZM13.3251 9.12C12.8611 9.12 12.4371 9.02 12.0531 8.82C11.6771 8.62 11.3771 8.328 11.1531 7.944C10.9371 7.552 10.8291 7.076 10.8291 6.516C10.8291 5.964 10.9451 5.488 11.1771 5.088C11.4091 4.68 11.7171 4.368 12.1011 4.152C12.4931 3.936 12.9211 3.828 13.3851 3.828C13.8491 3.828 14.2411 3.936 14.5611 4.152C14.8811 4.36 15.1251 4.608 15.2931 4.896L15.2211 5.088L15.3291 4.032H16.3611V9H15.2451V7.704L15.3651 7.992C15.3331 8.072 15.2611 8.176 15.1491 8.304C15.0451 8.424 14.9011 8.548 14.7171 8.676C14.5411 8.804 14.3371 8.912 14.1051 9C13.8731 9.08 13.6131 9.12 13.3251 9.12ZM13.6251 8.196C13.9051 8.196 14.1571 8.144 14.3811 8.04C14.6051 7.936 14.7891 7.792 14.9331 7.608C15.0851 7.416 15.1891 7.188 15.2451 6.924V5.952C15.1811 5.712 15.0691 5.504 14.9091 5.328C14.7491 5.144 14.5571 5.004 14.3331 4.908C14.1091 4.804 13.8611 4.752 13.5891 4.752C13.2931 4.752 13.0211 4.824 12.7731 4.968C12.5251 5.112 12.3251 5.312 12.1731 5.568C12.0291 5.824 11.9571 6.124 11.9571 6.468C11.9571 6.788 12.0331 7.08 12.1851 7.344C12.3371 7.608 12.5411 7.816 12.7971 7.968C13.0531 8.12 13.3291 8.196 13.6251 8.196ZM19.2883 4.032L19.3843 5.244L19.3363 5.052C19.4963 4.684 19.7563 4.392 20.1163 4.176C20.4763 3.952 20.8923 3.84 21.3643 3.84C21.8363 3.84 22.2203 3.98 22.5163 4.26C22.8203 4.532 22.9763 4.888 22.9843 5.328V9H21.8563V5.724C21.8483 5.452 21.7683 5.232 21.6163 5.064C21.4723 4.888 21.2443 4.8 20.9323 4.8C20.6443 4.8 20.3843 4.88 20.1523 5.04C19.9203 5.2 19.7363 5.42 19.6003 5.7C19.4723 5.98 19.4083 6.304 19.4083 6.672V9H18.2923V4.032H19.2883Z" fill="white"/>
<path d="M18.988 16.144L16.228 11.032H17.548L19.42 14.98L18.736 14.956L20.452 11.032H21.7L19.048 16.144H18.988ZM24.4737 16.192C24.0257 16.192 23.6537 16.056 23.3577 15.784C23.0697 15.504 22.9177 15.144 22.9017 14.704V11.032H24.0177V14.308C24.0337 14.58 24.1097 14.8 24.2457 14.968C24.3897 15.136 24.6137 15.224 24.9177 15.232C25.1977 15.232 25.4457 15.152 25.6617 14.992C25.8857 14.824 26.0657 14.6 26.2017 14.32C26.3377 14.032 26.4057 13.708 26.4057 13.348V11.032H27.5217V16H26.5017L26.4057 14.776L26.4657 14.992C26.3697 15.224 26.2217 15.432 26.0217 15.616C25.8297 15.792 25.6017 15.932 25.3377 16.036C25.0737 16.14 24.7857 16.192 24.4737 16.192ZM28.8885 15.364C28.8885 15.188 28.9525 15.04 29.0805 14.92C29.2165 14.792 29.3645 14.728 29.5245 14.728C29.6685 14.728 29.8045 14.792 29.9325 14.92C30.0685 15.04 30.1365 15.188 30.1365 15.364C30.1365 15.556 30.0685 15.712 29.9325 15.832C29.8045 15.944 29.6685 16 29.5245 16C29.3645 16 29.2165 15.944 29.0805 15.832C28.9525 15.712 28.8885 15.556 28.8885 15.364Z" fill="white"/>
</svg>
